<?xml version="1.0" standalone="no"?>
<!DOCTYPE svg PUBLIC "-//W3C//DTD SVG 20010904//EN"
 "http://www.w3.org/TR/2001/REC-SVG-20010904/DTD/svg10.dtd">
<svg version="1.0" xmlns="http://www.w3.org/2000/svg"
 width="2000.000000pt" height="2000.000000pt" viewBox="0 0 2000.000000 2000.000000"
 preserveAspectRatio="xMidYMid meet">
<metadata>
Created by potrace 1.11, written by Peter Selinger 2001-2013
</metadata>
<g transform="translate(0.000000,2000.000000) scale(0.100000,-0.100000)"
fill="#000000" stroke="none">
<path d="M9767 19443 c-1 -1 -74 -4 -162 -8 -178 -7 -220 -9 -445 -30 -212
-19 -224 -20 -407 -45 -157 -21 -160 -21 -358 -56 -196 -33 -197 -34 -225 -40
-14 -3 -36 -8 -50 -10 -14 -3 -68 -14 -120 -25 -52 -12 -114 -25 -138 -30 -24
-5 -47 -11 -51 -13 -4 -3 -19 -7 -34 -10 -115 -21 -521 -137 -762 -218 -194
-65 -523 -187 -600 -222 -16 -8 -68 -30 -115 -49 -138 -57 -336 -149 -535
-249 -188 -94 -426 -223 -506 -274 -21 -13 -43 -24 -49 -24 -5 0 -10 -4 -10
-10 0 -5 -5 -10 -12 -10 -6 0 -47 -22 -90 -50 -43 -27 -83 -50 -88 -50 -6 0
-10 -4 -10 -8 0 -5 -11 -14 -25 -20 -51 -24 -379 -246 -580 -394 -122 -90
-141 -105 -250 -191 -131 -104 -186 -148 -220 -178 -16 -14 -86 -75 -155 -135
-180 -156 -211 -185 -455 -429 -277 -276 -376 -385 -581 -631 -166 -199 -203
-246 -324 -409 -33 -44 -63 -84 -68 -90 -119 -155 -522 -773 -522 -801 0 -3
-8 -18 -19 -32 -18 -27 -48 -78 -104 -182 -16 -30 -40 -73 -52 -95 -30 -53
-185 -363 -242 -484 -138 -294 -301 -711 -413 -1052 -40 -121 -164 -549 -174
-599 -3 -14 -12 -52 -20 -85 -37 -147 -93 -404 -111 -515 -3 -19 -10 -59 -16
-89 -6 -30 -12 -64 -14 -75 -1 -12 -6 -41 -9 -66 -4 -25 -13 -85 -21 -135 -8
-49 -16 -112 -20 -140 -3 -27 -8 -63 -10 -80 -7 -49 -16 -125 -21 -184 -2 -31
-6 -72 -9 -91 -2 -19 -7 -78 -10 -130 -4 -52 -8 -115 -10 -140 -24 -292 -24
-899 0 -1235 12 -172 16 -223 20 -250 2 -16 7 -66 10 -110 3 -44 8 -87 10 -95
2 -8 6 -42 9 -75 4 -33 8 -71 10 -85 2 -14 7 -47 11 -75 3 -27 9 -66 11 -85
16 -121 91 -523 125 -670 22 -96 42 -183 44 -193 12 -56 72 -282 110 -412 200
-684 501 -1397 844 -1997 11 -21 31 -55 42 -75 12 -21 53 -91 93 -156 39 -65
80 -132 90 -150 48 -79 268 -404 355 -524 172 -235 405 -528 551 -690 25 -28
76 -86 115 -129 87 -100 544 -556 650 -650 147 -131 309 -268 435 -369 69 -55
127 -102 130 -105 32 -36 630 -454 767 -536 18 -10 97 -58 175 -105 149 -90
267 -159 272 -159 1 0 54 -28 117 -63 330 -181 740 -367 1144 -518 88 -34 494
-175 510 -178 6 -1 33 -9 60 -17 100 -31 388 -110 465 -128 161 -39 369 -86
400 -91 19 -3 42 -8 50 -10 32 -9 456 -81 535 -90 28 -4 61 -8 74 -10 14 -3
54 -7 90 -11 36 -3 68 -7 71 -9 3 -2 46 -6 95 -10 50 -4 98 -9 108 -11 10 -1
61 -6 114 -9 53 -4 113 -8 132 -10 91 -9 458 -19 666 -19 335 1 707 20 963 49
23 3 63 7 90 10 26 3 63 8 82 11 19 3 58 7 85 9 28 3 62 8 77 11 15 3 41 7 58
9 67 9 118 16 175 27 33 5 74 12 90 15 17 2 118 22 225 44 107 22 209 42 225
45 23 5 337 83 390 98 6 1 30 8 55 15 394 107 864 275 1291 461 168 74 604
289 717 354 35 20 65 36 67 36 4 0 295 172 386 227 226 139 676 453 824 575
11 9 72 57 134 108 118 94 186 151 276 230 28 25 89 79 135 120 92 80 551 537
640 636 30 33 80 89 110 124 30 35 60 68 65 74 71 75 341 414 471 591 173 236
402 580 497 747 14 24 54 93 89 153 316 542 613 1216 813 1851 56 178 133 448
142 498 2 16 9 39 13 52 8 20 76 314 87 374 2 14 13 68 23 120 30 148 56 298
66 384 3 22 9 64 14 91 9 47 13 79 25 193 3 26 8 61 10 77 2 17 7 62 10 100 3
39 8 81 10 95 2 14 7 68 10 120 4 52 8 111 10 130 23 211 23 1045 0 1280 -2
19 -6 73 -10 120 -7 95 -9 120 -25 270 -6 58 -12 116 -15 130 -2 14 -7 49 -10
79 -4 30 -8 61 -10 70 -1 9 -6 41 -10 71 -4 30 -9 62 -10 70 -1 8 -6 35 -9 60
-8 50 -54 307 -62 342 -3 13 -7 37 -10 53 -3 17 -17 80 -30 140 -14 61 -28
121 -30 135 -31 159 -169 634 -255 882 -28 79 -52 148 -53 153 -2 6 -7 19 -11
30 -4 11 -32 85 -63 165 -122 323 -330 778 -479 1050 -74 136 -119 217 -130
235 -7 11 -16 27 -20 35 -28 57 -264 437 -348 560 -130 190 -309 437 -391 540
-7 8 -48 60 -92 115 -84 104 -237 285 -357 420 -118 134 -572 585 -715 711
-389 342 -689 573 -1090 841 -155 103 -510 323 -522 323 -3 0 -35 17 -69 38
-374 226 -1130 563 -1619 722 -200 66 -469 147 -540 164 -8 2 -67 18 -130 34
-63 17 -126 33 -140 36 -14 3 -37 8 -52 11 -15 3 -74 16 -130 29 -88 21 -214
46 -308 62 -14 2 -36 7 -50 9 -34 7 -57 11 -115 20 -27 5 -52 9 -55 10 -3 0
-30 5 -60 9 -30 4 -64 10 -75 12 -11 2 -42 6 -70 9 -27 4 -61 8 -75 10 -14 2
-50 7 -80 10 -30 3 -66 8 -80 10 -14 2 -59 6 -100 10 -41 4 -86 8 -100 10 -14
2 -61 7 -105 10 -44 3 -109 8 -145 10 -168 13 -874 27 -883 18z"/>
</g>
</svg>
